<?xml version="1.0" encoding="UTF-8"?>
<svg xmlns="http://www.w3.org/2000/svg" xmlns:xlink="http://www.w3.org/1999/xlink" width="297px" height="64px" viewBox="0 0 297 64">
    
    <title>Artboard</title>
    <desc>Created with Sketch.</desc>
    <g id="Artboard" stroke="none" stroke-width="1" fill="none" fill-rule="evenodd">
        <g id="Group-2" transform="translate(0.000000, 1.000000)" fill-rule="nonzero">
            <g id="Group" transform="translate(5.235739, 0.000000)" fill="#EA4335">
                <path d="M25.4890541,31.2436192 L46.3660283,19.1899688 C51.279249,16.3536949 52.9625544,10.0708486 50.1258693,5.15803899 C47.2891843,0.24502381 41.0073658,-1.43889822 36.0937339,1.39819795 L0.0193223475,22.2258385 L25.4890541,31.2436192 Z" id="Path"/>
            </g>
            <g id="Group" transform="translate(0.000000, 20.826284)" fill="#4285F4">
                <path d="M46.4558567,41.3966905 C50.0062352,41.3966905 53.4587687,39.5540786 55.3616088,36.2587961 C58.1982939,31.3457809 56.5149885,25.0629347 51.6017678,22.2266607 L15.5273562,1.39943129 C10.6137243,-1.43889822 4.33190585,0.246462709 1.4952208,5.15947789 C-1.34146425,10.0729042 0.341841105,16.3551338 5.25506184,19.1916133 L41.3294734,40.0186372 C42.9470006,40.9528932 44.7135565,41.3966905 46.4558567,41.3966905" id="Path"/>
            </g>
            <g id="Group" transform="translate(71.857344, 30.813060)" fill="#FBBC04">
                <path d="M10.4834013,31.4101203 C12.2261126,31.4101203 13.9918462,30.9663229 15.6097845,30.0320669 L51.683785,9.205043 L26.5380109,0 L5.33749015,12.2400904 C0.424269417,15.0763644 -1.25903594,21.3592107 1.57764911,26.2722258 C3.48028367,29.5675083 6.93322827,31.4101203 10.4834013,31.4101203" id="Path"/>
            </g>
            <g id="Group" transform="translate(71.939566, 0.000534)" fill="#0F9D58">
                <path d="M46.4558567,41.3954572 C50.0062352,41.3954572 53.4587687,39.5534619 55.3616088,36.2575628 C58.1982939,31.3445476 56.5149885,25.062318 51.6015622,22.2252218 L15.5275618,1.39758128 C10.614341,-1.43889822 4.33252253,0.243996026 1.49542636,5.15742232 C-1.34125869,10.0702319 0.342252218,16.3524615 5.2552674,19.1895577 L41.3294734,40.0174038 C42.9470006,40.9508376 44.7133509,41.3954572 46.4558567,41.3954572" id="Path"/>
            </g>
            <g id="Group" transform="translate(157.550516, 7.295132)" fill="#676C72">
                <path d="M11.9222995,44.4646271 C8.33245401,42.3961081 5.48158553,39.5452396 3.37031073,35.9126383 C1.25821371,32.2810648 0.203090205,28.2696221 0.203090205,23.8768714 C0.203090205,19.4851485 1.25821371,15.4732947 3.37031073,11.8406934 C5.48158553,8.20911987 8.33245401,5.35866251 11.9222995,3.28891021 C15.5113228,1.22018569 19.4388982,0.184795642 23.7050259,0.184795642 C27.0405975,0.184795642 30.1763678,0.776799479 33.1119257,1.95854603 C36.046867,3.14152592 38.4648326,4.80920895 40.3654116,6.96303402 L36.5011477,10.8270924 C35.0649217,9.05334201 33.2278598,7.69152763 30.989962,6.74123814 C28.7510363,5.79094865 26.3437596,5.31611223 23.7683374,5.31611223 C20.558361,5.31611223 17.5701805,6.08715612 14.8046182,7.62821611 C12.038028,9.17030388 9.82089143,11.3448902 8.1532084,14.1530028 C6.48429203,16.9619377 5.6509644,20.2027476 5.6509644,23.8768714 C5.6509644,27.5509952 6.48429203,30.7924218 8.1532084,33.6005344 C9.82089143,36.4094693 12.0491281,38.5842612 14.8362739,40.1255267 C17.6236253,41.6676145 20.6009113,42.4376306 23.7683374,42.4376306 C26.8089349,42.4376306 29.3527014,41.9623831 31.4016924,41.0122992 C33.4496557,40.0620097 35.212306,38.8060571 36.6912878,37.2430025 C37.788756,36.061256 38.675734,34.6359245 39.3518106,32.9670081 C40.0268594,31.2993251 40.4494844,29.4513687 40.6186577,27.4243722 L23.8316489,27.4243722 L23.8316489,22.4198842 L45.6231457,22.4198842 C45.8340471,23.6026585 45.9399089,24.7003323 45.9399089,25.7137278 C45.9399089,28.5010792 45.4965227,31.2152523 44.6095447,33.8539861 C43.7227723,36.4939532 42.3073075,38.8060571 40.3654116,40.7905033 C36.1843845,45.309877 30.6306485,47.5687416 23.7050259,47.5687416 C19.4388982,47.5687416 15.5113228,46.5341738 11.9222995,44.4646271" id="Path"/>
            </g>
            <g id="Group" transform="translate(210.115729, 8.485676)" fill="#676C72">
                <path d="M13.7723115,40.2334441 C19.1350851,40.2334441 23.3903183,38.6923841 26.5367776,35.6090308 C29.6822091,32.5269108 31.2561581,28.2192607 31.2561581,22.6862859 C31.2561581,17.154339 29.6822091,12.8466888 26.5367776,9.7633355 C23.3903183,6.68100997 19.1350851,5.1389222 13.7723115,5.1389222 L5.41046285,5.1389222 L5.41046285,40.2334441 L13.7723115,40.2334441 Z M0.0892116893,0.00781116174 L13.7723115,0.00781116174 C18.417486,0.00781116174 22.4716845,0.968789613 25.934907,2.89012984 C29.3973072,4.81249786 32.05783,7.48288739 33.9166809,10.9035596 C35.7745041,14.3242317 36.7040323,18.2518072 36.7040323,22.6862859 C36.7040323,27.1205591 35.7745041,31.047929 33.9166809,34.4688067 C32.05783,37.8896845 29.3973072,40.5611018 25.934907,42.4822365 C22.4716845,44.4043989 18.417486,45.3645551 13.7723115,45.3645551 L0.0892116893,45.3645551 L0.0892116893,0.00781116174 Z" id="Shape"/>
            </g>
            <g id="Group" transform="translate(251.050327, 7.295132)" fill="#676C72">
                <path d="M11.9222995,44.4646271 C8.33224845,42.3961081 5.48179109,39.5452396 3.37031073,35.9126383 C1.25821371,32.2810648 0.203090205,28.2696221 0.203090205,23.8768714 C0.203090205,19.4851485 1.25821371,15.4732947 3.37031073,11.8406934 C5.48179109,8.20911987 8.33224845,5.35866251 11.9222995,3.28891021 C15.5113228,1.22018569 19.4388982,0.184795642 23.7048203,0.184795642 C27.0405975,0.184795642 30.1763678,0.776799479 33.1121313,1.95854603 C36.0466614,3.14152592 38.4648326,4.80920895 40.3652061,6.96303402 L36.5011477,10.8270924 C35.0649217,9.05334201 33.2276543,7.69152763 30.989962,6.74123814 C28.7510363,5.79094865 26.3437596,5.31611223 23.7683374,5.31611223 C20.558361,5.31611223 17.5701805,6.08715612 14.8046182,7.62821611 C12.038028,9.17030388 9.82089143,11.3448902 8.1532084,14.1530028 C6.48429203,16.9619377 5.6509644,20.2027476 5.6509644,23.8768714 C5.6509644,27.5509952 6.48429203,30.7924218 8.1532084,33.6005344 C9.82089143,36.4094693 12.0489225,38.5842612 14.8362739,40.1255267 C17.6236253,41.6676145 20.6009113,42.4376306 23.7683374,42.4376306 C26.8089349,42.4376306 29.3527014,41.9623831 31.4016924,41.0122992 C33.4496557,40.0620097 35.2125116,38.8060571 36.6910823,37.2430025 C37.7889616,36.061256 38.675734,34.6359245 39.3516051,32.9670081 C40.0268594,31.2993251 40.4494844,29.4513687 40.6188633,27.4243722 L23.8316489,27.4243722 L23.8316489,22.4198842 L45.6231457,22.4198842 C45.8340471,23.6026585 45.9399089,24.7003323 45.9399089,25.7137278 C45.9399089,28.5010792 45.4965227,31.2152523 44.6097502,33.8539861 C43.7227723,36.4939532 42.3073075,38.8060571 40.3652061,40.7905033 C36.1843845,45.309877 30.6306485,47.5687416 23.7048203,47.5687416 C19.4388982,47.5687416 15.5113228,46.5341738 11.9222995,44.4646271" id="Path"/>
            </g>
        </g>
    </g>
</svg>
